<?xml version="1.0" encoding="UTF-8"?>
<svg version="1.1" viewBox="0 0 1000 505" xmlns="http://www.w3.org/2000/svg">
<g transform="translate(-.60606 .057211)">
<svg width="1e3" height="505" data-background-color="#f9f9f9" viewBox="0 0 396 200" xmlns="http://www.w3.org/2000/svg" xmlns:xlink="http://www.w3.org/1999/xlink">
<g transform="translate(.24 -.022658)">
<svg width="395.52" height="200.05" viewBox="0 0 395.52 200.04530661497122">
<svg width="395.52" height="200.05" viewBox="0 0 488.7520015062567 247.2">
<svg width="308.56" height="247.2" viewBox="0 0 308.56170212765954 247.2">
<svg width="308.56" height="247.2" viewBox="0 0 308.56170212765954 247.2">
<svg width="308.56" height="247.2" viewBox="0 0 308.56170212765954 247.2">
<g>
<svg width="308.56" height="247.2" data-palette-color="#030303" viewBox="2.799999952316284 -35.150001525878906 44 35.25">
<path class="undefined-text-0" d="m23.2-14.5-0.05 6.5q0 0.45 0.3 0.77 0.3 0.33 0.8 0.33 3.05 0 5.03-1.2 1.97-1.2 1.97-3.78 0-2.57-2.05-3.57-1.65-0.8-3.6-0.8-0.5 0-1 0.05-1.4 0.1-1.4 1.7zm-0.05-13.75 0.05 4.1q0 0.95 1.15 0.95 5.05 0 5.05-2.85 0-3.3-4.5-3.3-0.3 0-0.55 0-1.2 0-1.2 1.1zm-16.35-6.7q6.2-0.2 15.5-0.2t12.88 0.17q3.57 0.18 6.32 2.78t2.75 6q0 4.15-3.6 6.1-0.35 0.2-0.35 0.47 0 0.28 0.35 0.38 2.6 0.7 4.38 3 1.77 2.3 1.77 5.45 0 3.95-3.05 7.15t-9.35 3.47q-6.3 0.28-9.1 0.28t-18.7-0.15q-1.45 0-2.35-0.93-0.9-0.92-1.05-2.12-0.4-4.4-0.4-12.83 0-8.42 0.35-14.37 0.15-2.45 0.85-3.53 0.7-1.07 2.8-1.12z" fill="#030303" data-fill-palette-color="primary"/>
</svg>
</g>
</svg>
</svg>
</svg>
<g transform="translate(425.28 91.863)">
<svg width="63.474" height="63.474" viewBox="0 0 63.47432497859715 63.47432497859715">
<svg/>
<svg width="63.474" height="63.474" viewBox="0 0 63.47432497859715 63.47432497859715">
<g fill="#030303" stroke="transparent">
<path d="m0 31.737c0-17.528 14.209-31.737 31.737-31.737s31.737 14.209 31.737 31.737-14.209 31.737-31.737 31.737-31.737-14.209-31.737-31.737zm31.737 9.445c5.216 0 9.444-4.228 9.445-9.445 0-5.216-4.228-9.444-9.445-9.444-5.216 0-9.444 4.228-9.444 9.444s4.228 9.444 9.444 9.445z" data-fill-palette-color="accent"/>
<ellipse cx="31.737" cy="31.737" rx="31.42" ry="31.42" stroke-width="0" data-fill-palette-color="accent"/>
</g>
<g transform="translate(36.499 35.602)">
<svg width="-9.5245" height="-7.7306" viewBox="0 0 -9.52448597622012 -7.730644322338533">
<svg class="icon-s-0" width="-9.5245" height="-7.7306" enable-background="new 0 0 100 81.166" data-fill-palette-color="quaternary" version="1.1" viewBox="0 0 100 81.16600036621094" xml:space="preserve" xmlns="http://www.w3.org/2000/svg" xmlns:xlink="http://www.w3.org/1999/xlink"><path d="M87.043 0H50 12.957L0 23.557l50 57.609 50-57.609L87.043 0zM83.635 6.345l7.59 13.801h-13.64L83.635 6.345zM77.168 6.043l-5.537 12.636L57.792 6.043H77.168zM64.273 20.146H50 35.727L50 7.113 64.273 20.146zM42.208 6.043L28.37 18.679 22.832 6.043H42.208zM16.365 6.345l6.05 13.801H8.775L16.365 6.345zM10.288 26.189h14.776l15.078 34.399L10.288 26.189zM31.663 26.189H50h18.338L50 68.022 31.663 26.189zM59.857 60.589l15.078-34.399h14.777L59.857 60.589z" fill="#f9f9f9" data-fill-palette-color="quaternary"/></svg>
</svg>
</g>
</svg>
</svg>
</g>
</svg>
</svg>
<rect width="395.52" height="200.05" fill="none" visibility="hidden"/>
</g>
</svg>
</g>
</svg>
